<?xml version="1.0" encoding="utf-8"?>
<!-- Generator: Adobe Illustrator 24.0.2, SVG Export Plug-In . SVG Version: 6.00 Build 0)  -->
<svg version="1.1" id="Layer_1" xmlns="http://www.w3.org/2000/svg" xmlns:xlink="http://www.w3.org/1999/xlink" x="0px" y="0px"
	 viewBox="0 0 512 512" enable-background="new 0 0 512 512" xml:space="preserve">
<g>
	<g>
		<polygon fill="#F2F2F2" points="7.1,13.3 7.1,466.8 330.2,466.8 330.2,73.9 270.7,13.3 		"/>
	</g>
	<g>
		<rect x="32.1" y="60.9" fill="#333D47" width="265.6" height="28.8"/>
	</g>
	<g>
		<polygon fill="#CDCCCA" points="270.4,13.4 270.4,74 329.9,74 		"/>
	</g>
	<g>
		<g>
			<rect x="32.1" y="158" fill="#CDCCCA" width="175.4" height="12.5"/>
		</g>
		<g>
			<rect x="245.1" y="138" fill="#FFFFFF" width="52.6" height="52.6"/>
		</g>
	</g>
	<g>
		<g>
			<rect x="32.1" y="236.9" fill="#CDCCCA" width="175.4" height="12.5"/>
		</g>
		<g>
			<rect x="245.1" y="216.9" fill="#FFFFFF" width="52.6" height="52.6"/>
		</g>
	</g>
	<g>
		<g>
			<g>
				<rect x="32.1" y="305.2" fill="#CDCCCA" width="175.4" height="12.5"/>
			</g>
			<g>
				<rect x="32.1" y="326.5" fill="#CDCCCA" width="175.4" height="12.5"/>
			</g>
		</g>
		<g>
			<rect x="245.1" y="295.8" fill="#FFFFFF" width="52.6" height="52.6"/>
		</g>
	</g>
	<g>
		<g>
			<rect x="32.1" y="394.8" fill="#CDCCCA" width="175.4" height="12.5"/>
		</g>
		<g>
			<rect x="245.1" y="374.7" fill="#FFFFFF" width="52.6" height="52.6"/>
		</g>
	</g>
	<g>
		<g>
			<polygon fill="#F97858" points="468.6,126.3 295,299.9 287,291.9 460.7,118.3 			"/>
		</g>
		<g>
			
				<rect x="271" y="219.4" transform="matrix(0.7071 -0.7071 0.7071 0.7071 -43.7805 344.3584)" fill="#F97858" width="245.5" height="11.3"/>
		</g>
		<g>
			
				<rect x="263.1" y="211.4" transform="matrix(0.7071 -0.7071 0.7071 0.7071 -40.4819 336.3734)" fill="#FF916E" width="245.5" height="11.3"/>
		</g>
		<g>
			<polygon fill="#FFDB7A" points="311,315.8 287,291.9 261.4,342.4 			"/>
		</g>
		<g>
			<polygon fill="#353F49" points="261.4,342.4 271.5,322.2 281.4,332.1 			"/>
		</g>
	</g>
	<g>
		<g>
			<polygon fill="#333D47" points="268.6,182.6 248.9,164 253.8,158.9 267.9,172.2 287.4,148.6 292.9,153.1 			"/>
		</g>
	</g>
	<g>
		<g>
			<polygon fill="#333D47" points="268.6,260.3 248.9,241.7 253.8,236.5 267.9,249.9 287.4,226.2 292.9,230.7 			"/>
		</g>
	</g>
</g>
</svg>
